<mxfile host="app.diagrams.net" modified="2024-03-28T08:16:18.950Z" agent="Mozilla/5.0 (Windows NT 10.0; Win64; x64) AppleWebKit/537.36 (KHTML, like Gecko) Chrome/122.0.0.0 Safari/537.36" version="24.2.0" etag="MEcze7F0ADs0nT3k_z7h" type="github">
  <diagram name="페이지-1" id="rHtlW6Boiic3L-ExHpQB">
    <mxGraphModel>
      <root>
        <mxCell id="0" />
        <mxCell id="1" parent="0" />
      </root>
    </mxGraphModel>
  </diagram>
</mxfile>
